# xmcd
#
# Track frame offsets: 
#        150
#        29413
#        49816
#        61964
#        88666
#        112293
#        128120
#        157595
#        188649
#
# Disc length: 2601 seconds
#
# Revision: 0
# Processed by: cddbd v1.5.2PL0 Copyright (c) Steve Scherf et al.
# Submitted via: ExactAudioCopy v0.99pb5
#
DISCID=720a2709
DTITLE=Paul Batto Jr. - Gospel
DYEAR=2009
DGENRE=Blues
TTITLE0=What A Friend
TTITLE1=Closer Walk
TTITLE2=Jesus Loves Me
TTITLE3=Until Then
TTITLE4=Softly and Tenderly
TTITLE5=This World Is Not My Home
TTITLE6=In The Garden
TTITLE7=Old Rugged Cross
TTITLE8=Amen
EXTD=
EXTT0=
EXTT1=
EXTT2=
EXTT3=
EXTT4=
EXTT5=
EXTT6=
EXTT7=
EXTT8=
PLAYORDER=
